# Blender v2.79 (sub 0) OBJ File: ''
# www.blender.org
mtllib Hammer.mtl
o Cube
v 0.085355 0.085355 1.600000
v 0.085355 -0.085355 1.600000
v -0.085355 0.085355 1.600000
v -0.085355 -0.085355 1.600000
v -0.000000 -0.120711 1.600000
v 0.000000 0.120711 1.600000
v 0.120711 0.000000 1.600000
v -0.120711 0.000000 1.600000
v -0.000000 -0.000000 0.000000
v 0.222418 0.500000 1.577582
v 0.250000 0.472418 1.577582
v 0.222418 0.472418 1.550000
v 0.241921 0.491921 1.577582
v 0.238342 0.488342 1.561658
v 0.241921 0.472418 1.558079
v 0.222418 0.491921 1.558079
v 0.222418 0.472418 2.050000
v 0.250000 0.472418 2.022418
v 0.222418 0.500000 2.022418
v 0.241921 0.472418 2.041921
v 0.238342 0.488342 2.038342
v 0.241921 0.491921 2.022418
v 0.222418 0.491921 2.041921
v 0.222418 -0.472417 1.550000
v 0.250000 -0.472417 1.577582
v 0.222418 -0.500000 1.577582
v 0.241921 -0.472417 1.558079
v 0.238342 -0.488342 1.561658
v 0.241921 -0.491921 1.577582
v 0.222418 -0.491921 1.558079
v 0.222418 -0.472417 2.050000
v 0.222418 -0.500000 2.022418
v 0.250000 -0.472417 2.022418
v 0.222418 -0.491921 2.041921
v 0.238342 -0.488342 2.038342
v 0.241921 -0.491921 2.022418
v 0.241921 -0.472417 2.041921
v -0.222418 0.472418 1.550000
v -0.250000 0.472418 1.577582
v -0.222418 0.500000 1.577582
v -0.241921 0.472418 1.558079
v -0.238342 0.488342 1.561658
v -0.241921 0.491921 1.577582
v -0.222418 0.491921 1.558079
v -0.222418 0.472418 2.050000
v -0.222418 0.500000 2.022418
v -0.250000 0.472418 2.022418
v -0.222418 0.491921 2.041921
v -0.238342 0.488342 2.038342
v -0.241921 0.491921 2.022418
v -0.241921 0.472418 2.041921
v -0.222418 -0.472417 1.550000
v -0.222418 -0.500000 1.577582
v -0.250000 -0.472417 1.577582
v -0.222418 -0.491921 1.558079
v -0.238342 -0.488342 1.561658
v -0.241921 -0.491921 1.577582
v -0.241921 -0.472417 1.558079
v -0.222418 -0.472417 2.050000
v -0.250000 -0.472417 2.022418
v -0.222418 -0.500000 2.022418
v -0.241921 -0.472417 2.041921
v -0.238342 -0.488342 2.038342
v -0.241921 -0.491921 2.022418
v -0.222418 -0.491921 2.041921
v 0.070815 0.070815 -0.000000
v 0.085355 0.085355 0.018998
v 0.081097 0.081097 0.005564
v 0.070815 -0.070815 0.000000
v 0.085355 -0.085355 0.018998
v 0.081097 -0.081097 0.005564
v -0.070815 0.070815 -0.000000
v -0.085355 0.085355 0.018998
v -0.081097 0.081097 0.005564
v -0.070815 -0.070815 0.000000
v -0.085355 -0.085355 0.018998
v -0.081097 -0.081097 0.005564
v -0.000000 -0.120711 0.018998
v -0.000000 -0.100148 0.000000
v -0.000000 -0.114688 0.005564
v 0.000000 0.120711 0.018998
v 0.000000 0.100148 -0.000000
v 0.000000 0.114688 0.005564
v 0.120711 -0.000000 0.018998
v 0.100148 -0.000000 0.000000
v 0.114688 -0.000000 0.005564
v -0.120711 0.000000 0.018998
v -0.100148 0.000000 -0.000000
v -0.114688 0.000000 0.005564
vn -0.6929 0.6929 -0.1994
vn -0.7071 0.7071 0.0000
vn 0.0000 1.0000 0.0000
vn 0.0000 0.9799 -0.1994
vn -0.6929 -0.6929 -0.1994
vn -0.7071 -0.7071 0.0000
vn -1.0000 0.0000 0.0000
vn -0.9799 0.0000 -0.1994
vn 0.2248 0.0000 -0.9744
vn 0.0000 0.0000 -1.0000
vn 0.0000 0.2248 -0.9744
vn 0.1590 0.1590 -0.9744
vn 0.6929 -0.6929 -0.1994
vn 0.7071 -0.7071 0.0000
vn 0.0000 -1.0000 0.0000
vn 0.0000 -0.9799 -0.1994
vn -0.2248 0.0000 -0.9744
vn -0.1590 0.1590 -0.9744
vn 0.1590 -0.1590 -0.9744
vn 0.0000 -0.2248 -0.9744
vn 0.9799 0.0000 -0.1994
vn 1.0000 0.0000 0.0000
vn -0.1590 -0.1590 -0.9744
vn 0.7071 0.7071 0.0000
vn 0.6929 0.6929 -0.1994
vn 0.5169 0.5169 -0.6824
vn 0.7309 0.0000 -0.6824
vn 0.5169 -0.5169 -0.6824
vn 0.0000 -0.7309 -0.6824
vn -0.5169 -0.5169 -0.6824
vn -0.7309 0.0000 -0.6824
vn -0.5169 0.5169 -0.6824
vn 0.0000 0.7309 -0.6824
vn -0.9673 -0.1794 -0.1794
vn -0.9673 -0.1794 0.1794
vn -0.9673 0.1794 0.1794
vn -0.9673 0.1794 -0.1794
vn 0.1794 -0.1794 -0.9673
vn -0.1794 -0.1794 -0.9673
vn -0.1794 0.1794 -0.9673
vn 0.1794 0.1794 -0.9673
vn 0.9673 0.1794 -0.1794
vn 0.9673 0.1794 0.1794
vn 0.9673 -0.1794 0.1794
vn 0.9673 -0.1794 -0.1794
vn -0.1794 -0.1794 0.9673
vn 0.1794 -0.1794 0.9673
vn 0.1794 0.1794 0.9673
vn -0.1794 0.1794 0.9673
vn 0.1794 -0.9673 -0.1794
vn 0.1794 -0.9673 0.1794
vn -0.1794 -0.9673 0.1794
vn -0.1794 -0.9673 -0.1794
vn 0.1794 0.9673 -0.1794
vn 0.6965 0.6965 -0.1726
vn 0.5773 0.5773 -0.5773
vn 0.1726 0.6965 -0.6965
vn 0.6965 0.1726 -0.6965
vn 0.6965 0.1726 0.6965
vn 0.5773 0.5773 0.5773
vn 0.1726 0.6965 0.6965
vn 0.6965 0.6965 0.1726
vn 0.1794 0.9673 0.1794
vn 0.6965 -0.1726 -0.6965
vn 0.5773 -0.5773 -0.5773
vn 0.1726 -0.6965 -0.6965
vn 0.6965 -0.6965 -0.1726
vn 0.1726 -0.6965 0.6965
vn 0.5773 -0.5773 0.5773
vn 0.6965 -0.1726 0.6965
vn 0.6965 -0.6965 0.1726
vn -0.6965 0.1726 -0.6965
vn -0.5773 0.5773 -0.5773
vn -0.1726 0.6965 -0.6965
vn -0.6965 0.6965 -0.1726
vn -0.1794 0.9673 -0.1794
vn -0.1726 0.6965 0.6965
vn -0.5773 0.5773 0.5773
vn -0.6965 0.1726 0.6965
vn -0.1794 0.9673 0.1794
vn -0.6965 0.6965 0.1726
vn -0.1726 -0.6965 -0.6965
vn -0.5773 -0.5773 -0.5773
vn -0.6965 -0.1726 -0.6965
vn -0.6965 -0.6965 -0.1726
vn -0.6965 -0.1726 0.6965
vn -0.5773 -0.5773 0.5773
vn -0.1726 -0.6965 0.6965
vn -0.6965 -0.6965 0.1726
usemtl Wood
s 1
f 73//1 3//2 6//3 81//4
f 76//5 4//6 8//7 87//8
f 85//9 9//10 82//11 66//12
f 87//8 8//7 3//2 73//1
f 70//13 2//14 5//15 78//16
f 9//10 88//17 72//18 82//11
f 69//19 79//20 9//10 85//9
f 84//21 7//22 2//14 70//13
f 78//16 5//15 4//6 76//5
f 79//20 75//23 88//17 9//10
f 81//4 6//3 1//24 67//25
f 85//9 66//12 68//26 86//27
f 86//27 68//26 67//25 84//21
f 79//20 69//19 71//28 80//29
f 80//29 71//28 70//13 78//16
f 88//17 75//23 77//30 89//31
f 89//31 77//30 76//5 87//8
f 82//11 72//18 74//32 83//33
f 83//33 74//32 73//1 81//4
f 75//23 79//20 80//29 77//30
f 77//30 80//29 78//16 76//5
f 66//12 82//11 83//33 68//26
f 68//26 83//33 81//4 67//25
f 69//19 85//9 86//27 71//28
f 71//28 86//27 84//21 70//13
f 72//18 88//17 89//31 74//32
f 74//32 89//31 87//8 73//1
f 67//25 1//24 7//22 84//21
usemtl Stone
f 54//34 60//35 47//36 39//37
f 24//38 52//39 38//40 12//41
f 11//42 18//43 33//44 25//45
f 59//46 31//47 17//48 45//49
f 26//50 32//51 61//52 53//53
f 10//54 13//55 14//56 16//57
f 11//42 15//58 14//56 13//55
f 12//41 16//57 14//56 15//58
f 17//48 20//59 21//60 23//61
f 18//43 22//62 21//60 20//59
f 19//63 23//61 21//60 22//62
f 24//38 27//64 28//65 30//66
f 25//45 29//67 28//65 27//64
f 26//50 30//66 28//65 29//67
f 31//47 34//68 35//69 37//70
f 32//51 36//71 35//69 34//68
f 33//44 37//70 35//69 36//71
f 38//40 41//72 42//73 44//74
f 39//37 43//75 42//73 41//72
f 40//76 44//74 42//73 43//75
f 45//49 48//77 49//78 51//79
f 46//80 50//81 49//78 48//77
f 47//36 51//79 49//78 50//81
f 52//39 55//82 56//83 58//84
f 53//53 57//85 56//83 55//82
f 54//34 58//84 56//83 57//85
f 59//46 62//86 63//87 65//88
f 60//35 64//89 63//87 62//86
f 61//52 65//88 63//87 64//89
f 17//48 31//47 37//70 20//59
f 20//59 37//70 33//44 18//43
f 10//54 19//63 22//62 13//55
f 13//55 22//62 18//43 11//42
f 24//38 12//41 15//58 27//64
f 27//64 15//58 11//42 25//45
f 32//51 26//50 29//67 36//71
f 36//71 29//67 25//45 33//44
f 52//39 24//38 30//66 55//82
f 55//82 30//66 26//50 53//53
f 31//47 59//46 65//88 34//68
f 34//68 65//88 61//52 32//51
f 60//35 54//34 57//85 64//89
f 64//89 57//85 53//53 61//52
f 38//40 52//39 58//84 41//72
f 41//72 58//84 54//34 39//37
f 59//46 45//49 51//79 62//86
f 62//86 51//79 47//36 60//35
f 46//80 40//76 43//75 50//81
f 50//81 43//75 39//37 47//36
f 12//41 38//40 44//74 16//57
f 16//57 44//74 40//76 10//54
f 45//49 17//48 23//61 48//77
f 48//77 23//61 19//63 46//80
f 40//76 46//80 19//63 10//54
