# Blender v2.78 (sub 0) OBJ File: 'TileAssets.blend'
# www.blender.org
mtllib Pebble.mtl
o Pebble_01.LOD0_Cube.003
v -0.032300 0.011298 -0.006157
v -0.032300 -0.011298 -0.006157
v -0.039573 0.011298 0.044676
v -0.039573 -0.011298 0.044676
v 0.017847 0.011298 -0.010065
v 0.017847 -0.011298 -0.010065
v 0.012729 0.011298 0.039335
v 0.012729 -0.011298 0.039335
v -0.042072 0.013837 0.020081
v -0.042072 -0.013837 0.020081
v 0.020741 0.013837 0.014370
v 0.020741 -0.013837 0.014370
v -0.036482 0.000000 -0.011958
v -0.045334 0.000000 0.050262
v 0.018641 0.000000 0.043774
v 0.024394 -0.000000 -0.016386
v 0.034339 -0.000000 0.012634
v -0.053740 0.000000 0.020213
v -0.014408 0.013837 0.047886
v -0.014408 -0.013837 0.047886
v -0.006798 0.013837 -0.013510
v -0.006798 -0.013837 -0.013510
v -0.011665 0.019569 0.018051
v -0.004586 -0.000000 -0.026807
v -0.014610 0.000000 0.059530
vn -0.9950 0.0000 -0.0997
vn -0.7971 -0.5933 -0.1123
vn -0.5449 -0.6466 0.5339
vn -0.7152 0.0000 0.6989
vn 0.0677 0.0000 0.9977
vn 0.0781 -0.5942 0.8005
vn 0.5443 -0.6060 0.5800
vn 0.7103 0.0000 0.7039
vn 0.9987 0.0000 0.0502
vn 0.7565 -0.6474 0.0928
vn 0.5098 -0.6973 -0.5038
vn 0.7136 0.0000 -0.7005
vn -0.0252 0.0000 -0.9997
vn -0.0763 -0.6386 -0.7657
vn -0.5603 -0.5963 -0.5749
vn -0.6764 0.0000 -0.7365
vn -0.0051 1.0000 0.0031
vn 0.5109 0.8581 0.0514
vn 0.4068 0.8202 -0.4021
vn -0.0393 0.8545 -0.5179
vn 0.0406 0.8371 0.5455
vn 0.4272 0.7819 0.4540
vn -0.4380 0.7775 -0.4512
vn -0.5446 0.8364 -0.0625
vn -0.4358 0.7918 0.4278
usemtl Rock
s 1
f 18//1 10//2 4//3 14//4
f 25//5 20//6 8//7 15//8
f 17//9 12//10 6//11 16//12
f 24//13 22//14 2//15 13//16
f 23//17 11//18 5//19 21//20
f 19//21 7//22 11//18 23//17
f 15//8 8//7 12//10 17//9
f 13//16 2//15 10//2 18//1
f 1//23 13//16 18//1 9//24
f 7//22 15//8 17//9 11//18
f 21//20 24//13 13//16 1//23
f 11//18 17//9 16//12 5//19
f 19//21 25//5 15//8 7//22
f 9//24 18//1 14//4 3//25
f 3//25 14//4 25//5 19//21
f 5//19 16//12 24//13 21//20
f 3//25 19//21 23//17 9//24
f 9//24 23//17 21//20 1//23
f 16//12 6//11 22//14 24//13
f 14//4 4//3 20//6 25//5
