# Blender v2.78 (sub 0) OBJ File: 'TileAssets.blend'
# www.blender.org
mtllib TreeStump.mtl
o TreeStump_01.LOD0_Cube.006
v -0.109944 -0.011210 0.043081
v 0.050356 -0.011210 0.109479
v 0.116754 -0.011210 -0.050820
v -0.043545 -0.011210 -0.117219
v 0.050356 -0.011210 -0.117219
v -0.043545 -0.011210 0.109479
v 0.116754 -0.011210 0.043081
v -0.109944 -0.011210 -0.050820
v -0.014497 0.139872 -0.066682
v -0.027547 0.139872 0.077908
v -0.086222 0.111476 -0.047913
v 0.101956 0.111476 0.030033
v -0.031106 0.111476 0.085149
v 0.046840 0.111476 -0.103029
v -0.031106 0.111476 -0.103029
v 0.101956 0.111476 -0.047913
v 0.046840 0.111476 0.085149
v 0.065465 0.139872 -0.033561
v 0.065465 0.139872 0.013280
v 0.032344 0.139872 -0.066682
v -0.086222 0.111476 0.030033
v 0.032344 0.139872 0.046402
v -0.047619 0.139872 -0.033561
v -0.047619 0.139872 0.013280
v -0.014497 0.139872 0.046402
v -0.027547 0.139872 -0.098188
v 0.045394 0.139872 0.077908
v 0.096971 0.139872 0.026330
v 0.045394 0.139872 -0.098188
v 0.096971 0.139872 -0.046611
v -0.079125 0.139872 0.026330
v -0.079125 0.139872 -0.046611
v -0.083620 -0.011210 -0.090895
v -0.129804 -0.105499 0.053767
v 0.053766 -0.105499 0.129804
v 0.129804 -0.105499 -0.053766
v -0.053767 -0.105499 -0.129804
v -0.053766 -0.105499 0.129804
v 0.053766 -0.105499 -0.129804
v -0.129804 -0.105499 -0.053766
v 0.129804 -0.105499 0.053766
v -0.069631 0.139872 0.022398
v 0.041462 0.139872 0.068414
v 0.087477 0.139872 -0.042679
v -0.023615 0.139872 -0.088694
v 0.041462 0.139872 -0.088694
v -0.023615 0.139872 0.068414
v 0.087477 0.139872 0.022398
v -0.082516 0.132773 -0.047606
v 0.099835 0.132773 0.027926
v -0.029107 0.132773 0.081335
v 0.046426 0.132773 -0.101016
v -0.029107 0.132773 -0.101016
v 0.099835 0.132773 -0.047606
v 0.046426 0.132773 0.081335
v -0.082516 0.132773 0.027926
v -0.069631 0.139872 -0.042679
v -0.083620 -0.011210 0.083156
v 0.090431 -0.011210 0.083156
v 0.090431 -0.011210 -0.090895
v 0.003405 -0.011210 -0.126943
v 0.003405 -0.011210 0.119203
v 0.126478 -0.011210 -0.003870
v -0.119668 -0.011210 -0.003870
v -0.094083 0.066606 -0.048621
v 0.106530 0.066606 0.034476
v -0.035325 0.066606 0.093235
v 0.047772 0.066606 -0.107379
v -0.035325 0.066606 -0.107379
v 0.106530 0.066606 -0.048621
v 0.047772 0.066606 0.093235
v -0.094083 0.066606 0.034476
v -0.064371 0.111476 0.063298
v 0.080105 0.111476 0.063298
v 0.080105 0.111476 -0.081178
v 0.007867 0.111476 -0.111100
v 0.007867 0.111476 0.093220
v 0.110027 0.111476 -0.008940
v -0.094293 0.111476 -0.008940
v -0.064371 0.111476 -0.081178
v 0.076524 0.139872 0.057460
v 0.008923 0.139872 -0.105742
v 0.104525 0.139872 -0.010140
v 0.076524 0.139872 -0.077741
v -0.058677 0.139872 -0.077741
v -0.086678 0.139872 -0.010140
v -0.058677 0.139872 0.057460
v 0.008923 0.139872 0.085461
v 0.062036 0.139872 -0.010140
v 0.008923 0.139872 0.042972
v -0.028633 0.139872 0.027416
v -0.028633 0.139872 -0.047696
v 0.008923 0.139872 -0.063253
v 0.046479 0.139872 0.027416
v -0.044189 0.139872 -0.010140
v 0.046479 0.139872 -0.047696
v -0.099659 -0.105499 -0.099659
v -0.099659 -0.105499 0.099659
v 0.099659 -0.105499 -0.099659
v 0.099659 -0.105499 0.099659
v -0.000000 -0.105499 0.140939
v -0.000000 -0.105499 -0.140939
v -0.140939 -0.105499 0.000000
v 0.140939 -0.105499 0.000000
v -0.061342 0.132773 -0.079842
v -0.061342 0.132773 0.060161
v 0.078661 0.132773 0.060161
v 0.078661 0.132773 -0.079842
v 0.008659 0.132773 -0.108838
v 0.008659 0.132773 0.089157
v 0.107657 0.132773 -0.009840
v -0.090338 0.132773 -0.009840
v -0.070789 0.066606 -0.084084
v -0.070789 0.066606 0.069940
v 0.083236 0.066606 0.069940
v 0.083236 0.066606 -0.084084
v 0.006223 0.066606 -0.115984
v 0.006223 0.066606 0.101839
v 0.115135 0.066606 -0.007072
v -0.102688 0.066606 -0.007072
v -0.074299 0.139872 -0.010140
v 0.092146 0.139872 -0.010140
v 0.008923 0.139872 0.073083
v 0.008923 0.139872 -0.093363
v 0.067771 0.139872 -0.068988
v 0.067771 0.139872 0.048707
v -0.049924 0.139872 0.048707
v -0.049924 0.139872 -0.068988
v 0.008923 0.139872 -0.010140
vn -0.8996 0.2282 0.3724
vn -0.9032 0.2107 0.3739
vn -0.9800 0.1989 -0.0002
vn -0.9762 0.2167 -0.0003
vn -0.9754 0.2203 0.0048
vn -0.8978 0.2315 0.3747
vn -0.6866 0.2371 0.6872
vn -0.6875 0.2338 0.6875
vn -0.6904 0.2164 0.6903
vn 0.3749 0.2049 0.9041
vn 0.3761 0.1869 0.9075
vn 0.0002 0.2036 0.9790
vn 0.0003 0.2213 0.9752
vn -0.0042 0.2248 0.9744
vn 0.3693 0.2086 0.9056
vn 0.6896 0.1898 0.6988
vn 0.6950 0.1860 0.6945
vn 0.6973 0.1676 0.6969
vn 0.9154 0.1348 -0.3793
vn 0.9176 0.1156 -0.3802
vn 0.9916 0.1289 -0.0002
vn 0.9890 0.1480 -0.0002
vn 0.9884 0.1518 0.0050
vn 0.9160 0.1385 -0.3764
vn 0.7010 0.1337 -0.7004
vn 0.7011 0.1300 -0.7011
vn 0.7027 0.1107 -0.7027
vn -0.3776 0.1590 -0.9122
vn -0.3787 0.1402 -0.9148
vn 0.0001 0.1241 -0.9922
vn 0.0002 0.1432 -0.9897
vn -0.0044 0.1470 -0.9891
vn -0.3827 0.1628 -0.9094
vn -0.6998 0.1832 -0.6905
vn -0.6954 0.1793 -0.6959
vn -0.6977 0.1609 -0.6981
vn 0.3794 0.1322 -0.9157
vn 0.3803 0.1130 -0.9179
vn 0.3772 0.1359 -0.9161
vn -0.3722 0.2307 0.8990
vn -0.3738 0.2132 0.9026
vn -0.3738 0.2340 0.8975
vn 0.9113 0.1652 0.3771
vn 0.9140 0.1465 0.3783
vn 0.9083 0.1690 0.3825
vn -0.9053 0.1988 -0.3753
vn -0.9085 0.1808 -0.3766
vn -0.9069 0.2026 -0.3695
vn 0.0000 1.0000 0.0000
vn -0.2125 0.8297 0.5161
vn -0.3961 0.8285 0.3957
vn -0.6666 0.3337 0.6665
vn -0.3607 0.3311 0.8719
vn 0.0008 0.3224 0.9466
vn 0.0026 0.8253 0.5647
vn -0.9111 0.1648 -0.3777
vn -0.8803 0.3021 -0.3657
vn -0.6771 0.2841 -0.6788
vn -0.6995 0.1444 -0.6999
vn -0.9831 0.1832 -0.0002
vn -0.9480 0.3182 -0.0009
vn 0.9161 0.1299 0.3793
vn 0.8896 0.2712 0.3674
vn 0.6775 0.2902 0.6758
vn 0.6991 0.1513 0.6988
vn 0.9937 0.1119 -0.0001
vn 0.9669 0.2553 -0.0008
vn -0.3750 0.1979 0.9056
vn -0.6927 0.2011 0.6926
vn 0.0002 0.1880 0.9821
vn 0.3810 0.0957 -0.9196
vn 0.3717 0.2408 -0.8966
vn 0.6866 0.2387 -0.6867
vn 0.7040 0.0933 -0.7040
vn 0.0001 0.1069 -0.9943
vn 0.0007 0.2509 -0.9680
vn -0.3796 0.1234 -0.9169
vn -0.3681 0.2656 -0.8910
vn 0.9194 0.0984 -0.3809
vn 0.8960 0.2432 -0.3715
vn 0.3772 0.1711 0.9102
vn 0.3650 0.3076 0.8787
vn -0.9061 0.1953 0.3752
vn -0.8727 0.3288 0.3609
vn -0.2207 0.8109 -0.5419
vn 0.0028 0.8045 -0.5939
vn -0.4075 0.8142 -0.4134
vn 0.2204 0.8231 0.5234
vn 0.4116 0.8160 0.4058
vn 0.5398 0.8126 0.2197
vn 0.5922 0.8058 -0.0032
vn 0.2289 0.8037 -0.5492
vn 0.4232 0.8009 -0.4236
vn 0.5482 0.8044 -0.2289
vn -0.5171 0.8291 0.2125
vn -0.5664 0.8241 -0.0030
vn -0.5254 0.8215 -0.2214
usemtl TreeBrown
s 1
f 1//1 72//2 120//3 64//4
f 1//1 64//4 103//5 34//6
f 1//1 34//6 98//7 58//8
f 1//1 58//8 114//9 72//2
f 2//10 71//11 118//12 62//13
f 2//10 62//13 101//14 35//15
f 2//10 35//15 100//16 59//17
f 2//10 59//17 115//18 71//11
f 3//19 70//20 119//21 63//22
f 3//19 63//22 104//23 36//24
f 3//19 36//24 99//25 60//26
f 3//19 60//26 116//27 70//20
f 4//28 69//29 117//30 61//31
f 4//28 61//31 102//32 37//33
f 4//28 37//33 97//34 33//35
f 4//28 33//35 113//36 69//29
f 5//37 68//38 116//27 60//26
f 5//37 60//26 99//25 39//39
f 5//37 39//39 102//32 61//31
f 5//37 61//31 117//30 68//38
f 6//40 67//41 114//9 58//8
f 6//40 58//8 98//7 38//42
f 6//40 38//42 101//14 62//13
f 6//40 62//13 118//12 67//41
f 7//43 66//44 115//18 59//17
f 7//43 59//17 100//16 41//45
f 7//43 41//45 104//23 63//22
f 7//43 63//22 119//21 66//44
f 8//46 65//47 113//36 33//35
f 8//46 33//35 97//34 40//48
f 8//46 40//48 103//5 64//4
f 8//46 64//4 120//3 65//47
f 9//49 93//49 124//49 45//49
f 9//49 45//49 128//49 92//49
f 9//49 92//49 129//49 93//49
f 10//50 87//51 106//52 51//53
f 10//50 51//53 110//54 88//55
f 10//50 88//55 123//49 47//49
f 10//50 47//49 127//49 87//51
f 11//56 49//57 105//58 80//59
f 11//56 80//59 113//36 65//47
f 11//56 65//47 120//3 79//60
f 11//56 79//60 112//61 49//57
f 12//62 50//63 107//64 74//65
f 12//62 74//65 115//18 66//44
f 12//62 66//44 119//21 78//66
f 12//62 78//66 111//67 50//63
f 13//68 51//53 106//52 73//69
f 13//68 73//69 114//9 67//41
f 13//68 67//41 118//12 77//70
f 13//68 77//70 110//54 51//53
f 14//71 52//72 108//73 75//74
f 14//71 75//74 116//27 68//38
f 14//71 68//38 117//30 76//75
f 14//71 76//75 109//76 52//72
f 15//77 53//78 109//76 76//75
f 15//77 76//75 117//30 69//29
f 15//77 69//29 113//36 80//59
f 15//77 80//59 105//58 53//78
f 16//79 54//80 111//67 78//66
f 16//79 78//66 119//21 70//20
f 16//79 70//20 116//27 75//74
f 16//79 75//74 108//73 54//80
f 17//81 55//82 110//54 77//70
f 17//81 77//70 118//12 71//11
f 17//81 71//11 115//18 74//65
f 17//81 74//65 107//64 55//82
f 18//49 89//49 122//49 44//49
f 18//49 44//49 125//49 96//49
f 18//49 96//49 129//49 89//49
f 19//49 94//49 126//49 48//49
f 19//49 48//49 122//49 89//49
f 19//49 89//49 129//49 94//49
f 20//49 96//49 125//49 46//49
f 20//49 46//49 124//49 93//49
f 20//49 93//49 129//49 96//49
f 21//83 56//84 112//61 79//60
f 21//83 79//60 120//3 72//2
f 21//83 72//2 114//9 73//69
f 21//83 73//69 106//52 56//84
f 22//49 90//49 123//49 43//49
f 22//49 43//49 126//49 94//49
f 22//49 94//49 129//49 90//49
f 23//49 92//49 128//49 57//49
f 23//49 57//49 121//49 95//49
f 23//49 95//49 129//49 92//49
f 24//49 95//49 121//49 42//49
f 24//49 42//49 127//49 91//49
f 24//49 91//49 129//49 95//49
f 25//49 91//49 127//49 47//49
f 25//49 47//49 123//49 90//49
f 25//49 90//49 129//49 91//49
f 26//85 82//86 109//76 53//78
f 26//85 53//78 105//58 85//87
f 26//85 85//87 128//49 45//49
f 26//85 45//49 124//49 82//86
f 27//88 88//55 110//54 55//82
f 27//88 55//82 107//64 81//89
f 27//88 81//89 126//49 43//49
f 27//88 43//49 123//49 88//55
f 28//90 81//89 107//64 50//63
f 28//90 50//63 111//67 83//91
f 28//90 83//91 122//49 48//49
f 28//90 48//49 126//49 81//89
f 29//92 84//93 108//73 52//72
f 29//92 52//72 109//76 82//86
f 29//92 82//86 124//49 46//49
f 29//92 46//49 125//49 84//93
f 30//94 83//91 111//67 54//80
f 30//94 54//80 108//73 84//93
f 30//94 84//93 125//49 44//49
f 30//94 44//49 122//49 83//91
f 31//95 86//96 112//61 56//84
f 31//95 56//84 106//52 87//51
f 31//95 87//51 127//49 42//49
f 31//95 42//49 121//49 86//96
f 32//97 85//87 105//58 49//57
f 32//97 49//57 112//61 86//96
f 32//97 86//96 121//49 57//49
f 32//97 57//49 128//49 85//87
